:SAMPLES-PER-SECOND 30
:FULLY-SPECIFIED
:DEGREES
67
root  34.6223 39.654 1.94541 -160.893 -80.328 154.143
RightUpLeg  -12.7665 2.86897 -7.92929
RightLeg  62.0786 -2.22139 -5.08473
RightFoot  7.98807 -1.11717 6.87513
RightToes  1.74622e-010 0 -3.6325e-017
Spine  6.56543 0.120358 -1.5098
Spine1  10.3819 0.641425 -2.87172
HEad  3.98928 6.6027 -7.39858
LeftShoulder1  9.22095 -12.5585 -50.1124
LeftArm  -4.98503 13.8154 -23.8857
LeftForeArm  24.6839 -12.9534 -5.90028
LeftHand  -0.244104 0.0205437 5.32207
RightShoulder  7.32897 10.9587 44.2269
RightArm  -1.2627 -6.47142 32.2755
RightForeArm  12.1713 6.52462 8.26949
RightHand  -0.978946 1.92505 -15.6501
LeftUpLeg  -4.70523 9.41312 -6.41544
LeftLeg  14.3499 9.64863 -0.478758
LeftFoot  -5.12173 -0.240839 4.98781
LeftToes  -1.18267e-011 5.39559e-011 -6.19194e-012
68
root  33.2466 39.8212 2.02071 -163.27 -81.1688 156.287
RightUpLeg  -16.5281 2.31134 -6.90456
RightLeg  58.653 -2.57375 -5.03215
RightFoot  6.6181 -0.982283 6.48941
RightToes  1.74622e-010 0 -3.6325e-017
Spine  7.34255 -0.590352 -1.71156
Spine1  10.0963 -0.497053 -1.76295
HEad  3.90256 6.9772 -7.44626
LeftShoulder1  9.0447 -12.48 -49.3986
LeftArm  -4.35103 10.8687 -24.2177
LeftForeArm  22.4068 -15.7573 -5.17642
LeftHand  -0.244104 0.0205437 5.32207
RightShoulder  7.22633 10.8757 43.8403
RightArm  -0.96283 -9.44673 31.6435
RightForeArm  12.7436 7.19177 8.15408
RightHand  -0.982957 1.88197 -15.8022
LeftUpLeg  -1.29662 7.07959 -5.52296
LeftLeg  12.9246 11.3139 -1.48643
LeftFoot  -6.75771 -0.143785 4.62491
LeftToes  -1.18267e-011 5.39559e-011 -6.19194e-012
69
root  31.8549 39.9303 2.09388 -166.155 -82.1922 159.016
RightUpLeg  -19.2388 1.33534 -5.72734
RightLeg  52.1562 -2.75178 -4.18747
RightFoot  5.50482 -0.700697 4.98053
RightToes  1.74622e-010 0 -3.6325e-017
Spine  8.1354 -1.30086 -1.67372
Spine1  9.56991 -1.55473 -0.625448
HEad  3.97666 7.31026 -7.17935
LeftShoulder1  8.84452 -12.3669 -48.6477
LeftArm  -4.06558 8.40523 -24.3441
LeftForeArm  20.32 -19.7558 -4.22416
LeftHand  -0.244104 0.0205437 5.32207
RightShoulder  7.07277 10.7367 43.2998
RightArm  -0.246623 -12.6332 30.8897
RightForeArm  10.6347 8.67056 8.19316
RightHand  -0.941969 1.67804 -15.5762
LeftUpLeg  1.95063 5.62187 -4.83274
LeftLeg  11.4783 11.7802 -2.30738
LeftFoot  -8.1417 -0.0846995 4.80537
LeftToes  -1.18267e-011 5.39559e-011 -6.19194e-012
70
root  30.4469 39.8919 2.12622 -166.072 -83.1491 158.755
RightUpLeg  -20.5359 -0.132431 -5.05206
RightLeg  42.8326 -2.65683 -2.92643
RightFoot  3.82704 -0.616037 4.8384
RightToes  1.74622e-010 0 -3.6325e-017
Spine  8.72271 -1.86369 -2.35642
Spine1  9.28513 -2.52906 0.608645
HEad  3.99504 7.63234 -6.75812
LeftShoulder1  8.68917 -12.2367 -48.1845
LeftArm  -5.6647 6.13262 -23.9769
LeftForeArm  20.5816 -24.3685 -4.05659
LeftHand  -0.244104 0.0205437 5.32207
RightShoulder  6.93307 10.5583 42.9645
RightArm  0.776199 -15.3137 29.8115
RightForeArm  7.90677 10.0872 8.19481
RightHand  -0.913464 1.62775 -15.2206
LeftUpLeg  4.64973 5.1205 -4.64561
LeftLeg  11.2009 11.3977 -2.62779
LeftFoot  -10.2719 0.0151345 4.84774
LeftToes  -1.18267e-011 5.39559e-011 -6.19194e-012
71
root  28.9659 39.6747 2.10238 -161.063 -83.7231 153.53
RightUpLeg  -20.5593 -2.12488 -4.91353
RightLeg  31.4713 -2.27989 -1.7764
RightFoot  2.79876 -0.721661 5.95945
RightToes  1.74622e-010 0 -3.6325e-017
Spine  8.78222 -2.13583 -3.87083
Spine1  9.53896 -3.22563 1.73581
HEad  3.81758 7.68228 -6.22364
LeftShoulder1  8.62415 -12.167 -48.0345
LeftArm  -8.43862 3.73008 -23.2339
LeftForeArm  22.6388 -28.7432 -4.98191
LeftHand  -0.244104 0.0205437 5.32207
RightShoulder  6.82555 10.3768 42.844
RightArm  0.973167 -17.2636 28.6394
RightForeArm  6.86893 10.7147 8.06112
RightHand  -0.930923 1.81096 -15.1247
LeftUpLeg  6.84558 5.16058 -5.03685
LeftLeg  12.3578 10.8141 -2.49003
LeftFoot  -13.1632 0.14958 4.42315
LeftToes  -1.18267e-011 5.39559e-011 -6.19194e-012
72
root  27.4178 39.469 2.07142 -155.421 -84.0605 147.906
RightUpLeg  -19.78 -4.82001 -4.47673
RightLeg  18.5291 -1.09118 -0.465439
RightFoot  2.81548 -0.761925 6.28203
RightToes  1.74622e-010 0 -3.6325e-017
Spine  8.14028 -2.26984 -4.89704
Spine1  10.2528 -3.63426 2.75723
HEad  3.70112 7.37385 -5.58247
LeftShoulder1  8.6178 -12.1653 -48.0038
LeftArm  -9.86657 1.27847 -22.44
LeftForeArm  23.7511 -32.3979 -5.79049
LeftHand  -0.244104 0.0205437 5.32207
RightShoulder  6.73478 10.2284 42.7237
RightArm  -0.327674 -18.7313 27.7981
RightForeArm  7.66491 10.0922 7.90014
RightHand  -0.969618 2.02452 -15.3045
LeftUpLeg  9.31268 5.21194 -5.45779
LeftLeg  12.6423 10.26 -2.46369
LeftFoot  -15.2302 0.237189 4.26199
LeftToes  -1.18267e-011 5.39559e-011 -6.19194e-012
73
root  25.8253 39.2757 2.04139 -149.503 -84.4441 142.305
RightUpLeg  -18.5711 -6.65096 -4.42629
RightLeg  5.27352 0.283557 1.62051
RightFoot  2.6606 -0.786599 6.55301
RightToes  1.74622e-010 0 -3.6325e-017
Spine  7.03011 -2.41727 -5.16543
Spine1  11.0226 -3.89063 3.46201
HEad  3.95382 6.75906 -4.90297
LeftShoulder1  8.60999 -12.1784 -47.9194
LeftArm  -10.3661 -1.00411 -21.7965
LeftForeArm  24.4513 -35.0102 -6.41636
LeftHand  -0.244104 0.0205437 5.32207
RightShoulder  6.65538 10.1101 42.5783
RightArm  -2.41019 -19.9824 27.3696
RightForeArm  8.86756 8.40745 7.68249
RightHand  -0.990166 2.09565 -15.4796
LeftUpLeg  11.9283 5.33046 -5.66655
LeftLeg  12.0674 9.48331 -2.64388
LeftFoot  -16.8145 0.309885 4.37086
LeftToes  -1.18267e-011 5.39559e-011 -6.19194e-012
